# xmcd
#
# Track frame offsets:
#	150
#	11697
#	23099
#	35001
#	50164
#	60963
#	80440
#	95071
#	106978
#	124194
#	137754
#	150598
#	161100
#	179865
#
# Disc length: 2580 seconds
#
# Revision: 1
# Processed by: cddbd v1.5.2PL0 Copyright (c) Steve Scherf et al.
# Submitted via: audiograbber 1.83.01
#
DISCID=be0a120e
DTITLE=Jimmy Barnes - The Rhythm And The Blues
DYEAR=2009
DGENRE=R&B
TTITLE0=Red Hot
TTITLE1=That's Right
TTITLE2=Hallelujah I Love Her So
TTITLE3=That's How It Is (When You're In Love)
TTITLE4=Keep A Knockin'
TTITLE5=Reconsider Me
TTITLE6=Shake, Rattle And Roll
TTITLE7=Rocking Pneumonia And The Boogie Woogie Flu
TTITLE8=A Fool In Love
TTITLE9=You Can't Judge A Book By The Cover
TTITLE10=I Was Made To Love Her
TTITLE11=Young Blood
TTITLE12=My Baby Just Cares For Me
TTITLE13=Sea Cruise
EXTD=
EXTT0=
EXTT1=
EXTT2=
EXTT3=
EXTT4=
EXTT5=
EXTT6=
EXTT7=
EXTT8=
EXTT9=
EXTT10=
EXTT11=
EXTT12=
EXTT13=
PLAYORDER=
